<?xml version="1.0" encoding="UTF-8"?>
<svg width="152px" height="55px" viewBox="0 0 152 55" version="1.1" xmlns="http://www.w3.org/2000/svg" xmlns:xlink="http://www.w3.org/1999/xlink">
    <!-- Generator: Sketch 56.3 (81716) - https://sketch.com -->
    <title>logo</title>
    <desc>Created with Sketch.</desc>
    <g id="Page-1" stroke="none" stroke-width="1" fill="none" fill-rule="evenodd">
        <g id="logo" fill="#FFFFFF">
            <g id="Group">
                <path d="M19.5,47.5717459 C30.9196342,47.5717459 38.8613283,37.7007259 38.8613283,30.7971665 C38.8613283,23.8936072 30.2695526,22 19.5,22 C8.73044738,22 2.31888744,26.0964406 2.31888744,33 C2.31888744,39.9035594 8.08036577,47.5717459 19.5,47.5717459 Z" id="Oval"></path>
                <path d="M11.2377907,45.9425431 C8.17356653,39.5712846 9.80537688,35.9204869 12.1604631,32.4809101 C14.7395148,28.7140787 15.40417,24.9854082 15.40417,24.9854082 C15.40417,24.9854082 17.4315838,27.6190375 16.6205493,31.7381049 C20.2022734,27.7540225 20.8782217,21.406367 20.3373596,18.9753446 C28.4333941,24.6288652 31.8934803,36.8702921 27.2304631,45.9425431 C52.0317562,31.9206404 33.399601,10.9395581 30.1558079,8.5761573 C31.237101,10.9394719 31.4421872,14.9403521 29.2578769,16.882 C25.5602907,2.87138202 16.4178769,0 16.4178769,0 C17.49917,7.22535955 12.4983941,15.1262472 7.67615274,21.0299251 C7.50675619,18.148809 7.32675619,16.1607303 5.81054929,13.4036592 C5.47020446,18.6374944 1.46735964,22.9038652 0.383394119,28.1478652 C-1.08488174,35.2494382 1.48322171,40.449161 11.2377907,45.9425431 Z" id="Path" fill-rule="nonzero"></path>
                <polygon id="Path-2" fill-rule="nonzero" points="11.1723894 45.9152063 27.2104557 45.9152063 34.2792257 36.0553706 20.9815896 14.4732587 6.60681192 29.1112011"></polygon>
                <ellipse id="Oval" fill-rule="nonzero" cx="12.4452045" cy="41.994382" rx="4.18103448" ry="3.74719101"></ellipse>
            </g>
            <path d="M45.8807336,45.7757848 C44.9242537,45.7757848 44.1904138,45.504487 43.6791918,44.9618834 C43.1679697,44.4192798 42.9453441,43.6547135 43.0113083,42.6681614 L45.2870594,14.0089686 C45.3530236,13.0553017 45.6745939,12.3153987 46.25178,11.7892377 C46.8289662,11.2630766 47.5957877,11 48.5522676,11 L58.2489465,11 C61.7450455,11 64.7463685,11.6412492 67.2530055,12.9237668 C69.7596425,14.2062844 71.680819,16.0642629 73.0165927,18.4977578 C74.3523663,20.9312528 75.0202431,23.808653 75.0202431,27.1300448 C75.0202431,31.0433678 74.2946486,34.3893733 72.8434377,37.1681614 C71.3922268,39.9469496 69.2731608,42.0762258 66.4861763,43.5560538 C63.6991917,45.0358818 60.3433168,45.7757848 56.418451,45.7757848 L45.8807336,45.7757848 Z M55.9237225,40.5964126 C64.4001134,40.5964126 68.6382453,36.0912259 68.6382453,27.0807175 C68.6382453,23.5291302 67.6982705,20.824374 65.8182928,18.9663677 C63.938315,17.1083614 61.167863,16.1793722 57.5068537,16.1793722 L51.4711659,16.1793722 L49.5417246,40.5964126 L55.9237225,40.5964126 Z M95.1556937,21.161435 C95.8812991,21.0956648 96.466722,21.2518666 96.9119799,21.6300448 C97.3572378,22.0082231 97.5798634,22.5590397 97.5798634,23.2825112 C97.5798634,24.2690632 97.3489924,25.0089661 96.8872435,25.5022422 C96.4254946,25.9955182 95.6174461,26.3079216 94.4630738,26.4394619 L93.1273068,26.5874439 C90.9834725,26.8176394 89.4168479,27.4177829 88.4273859,28.3878924 C87.4379239,29.3580019 86.8607464,30.8131443 86.6958361,32.7533632 L85.8547976,43.1121076 C85.7888335,44.0986596 85.442527,44.8385626 84.8158677,45.3318386 C84.1892085,45.8251146 83.4471231,46.0717489 82.5895894,46.0717489 C81.6990736,46.0717489 80.9734791,45.8251146 80.412784,45.3318386 C79.8520888,44.8385626 79.604727,44.0986596 79.6706912,43.1121076 L81.2538224,23.9730942 C81.3197866,23.0523123 81.6743384,22.3535151 82.3174887,21.8766816 C82.960639,21.3998481 83.694479,21.161435 84.5190306,21.161435 C85.3765643,21.161435 86.0444412,21.391627 86.5226811,21.8520179 C87.0009211,22.3124089 87.2070559,22.9865426 87.1410918,23.8744395 L87.042146,25.206278 C87.8996798,23.9895305 88.9880716,23.044099 90.3073542,22.3699552 C91.6266369,21.6958113 93.0613352,21.3094175 94.6114923,21.2107623 L95.1556937,21.161435 Z M109.750185,46.1704036 C107.27653,46.1704036 105.124482,45.6853561 103.293978,44.7152466 C101.463473,43.7451372 100.053511,42.363985 99.0640489,40.5717489 C98.074587,38.7795127 97.5798634,36.6995634 97.5798634,34.3318386 C97.5798634,31.635263 98.0993232,29.284016 99.1382582,27.2780269 C100.177193,25.2720378 101.644873,23.734684 103.541342,22.6659193 C105.437811,21.5971546 107.639331,21.0627803 110.145968,21.0627803 C112.619623,21.0627803 114.77167,21.5478277 116.602175,22.5179372 C118.432679,23.4880467 119.842642,24.8691988 120.832104,26.661435 C121.821566,28.4536711 122.316289,30.5336204 122.316289,32.9013453 C122.316289,35.5979208 121.796829,37.9491678 120.757894,39.955157 C119.718959,41.9611461 118.251279,43.4984999 116.354811,44.5672646 C114.458342,45.6360293 112.256822,46.1704036 109.750185,46.1704036 Z M109.750185,41.3856502 C111.861037,41.3856502 113.452398,40.5881993 114.524315,38.9932735 C115.596232,37.3983478 116.132183,35.3019562 116.132183,32.7040359 C116.132183,30.4349662 115.629214,28.7167472 114.623261,27.5493274 C113.617308,26.3819075 112.141382,25.7982063 110.195441,25.7982063 C108.084588,25.7982063 106.484982,26.5956572 105.396574,28.190583 C104.308166,29.7855087 103.76397,31.8819003 103.76397,34.4798206 C103.76397,39.08373 105.759355,41.3856502 109.750185,41.3856502 Z M141.660174,21.0627803 C143.705062,21.0627803 145.502558,21.5313854 147.052715,22.4686099 C148.602872,23.4058343 149.814945,24.7541018 150.688969,26.5134529 C151.562994,28.272804 152,30.3198687 152,32.6547085 C152,35.318399 151.521767,37.669646 150.565287,39.7085202 C149.608807,41.7473943 148.256563,43.334075 146.508513,44.4686099 C144.760464,45.6031447 142.748588,46.1704036 140.472826,46.1704036 C138.757758,46.1704036 137.248851,45.8251156 135.94606,45.1345291 C134.643268,44.4439427 133.612594,43.4574055 132.854006,42.1748879 L132.062441,52.2869955 C131.996477,53.1091222 131.658416,53.7668137 131.048247,54.2600897 C130.438079,54.7533657 129.687748,55 128.797233,55 C127.873735,55 127.139895,54.7451446 126.595691,54.235426 C126.051487,53.7257075 125.81237,53.0433526 125.878334,52.1883408 L128.104613,24.0717489 C128.170577,23.150967 128.492147,22.4357275 129.069333,21.926009 C129.64652,21.4162904 130.39685,21.161435 131.320348,21.161435 C132.243846,21.161435 132.961195,21.4162904 133.472417,21.926009 C133.983639,22.4357275 134.222756,23.150967 134.189773,24.0717489 L134.140301,24.7623318 C134.93187,23.5784694 135.98728,22.6659225 137.306563,22.0246637 C138.625846,21.3834049 140.077035,21.0627803 141.660174,21.0627803 Z M139.384423,41.3856502 C141.396329,41.3856502 142.971199,40.6375262 144.10908,39.1412556 C145.246961,37.644985 145.815894,35.5979203 145.815894,33 C145.815894,30.7309304 145.279943,28.9633845 144.208026,27.6973094 C143.136109,26.4312343 141.643693,25.7982063 139.730733,25.7982063 C137.751809,25.7982063 136.201675,26.5545515 135.080285,28.0672646 C133.958895,29.5799777 133.398208,31.6188213 133.398208,34.1838565 C133.398208,36.5515813 133.909422,38.3437906 134.931866,39.5605381 C135.95431,40.7772856 137.438481,41.3856502 139.384423,41.3856502 Z" id="Drop" fill-rule="nonzero"></path>
        </g>
    </g>
</svg>